<svg width="380" height="230" viewBox="0 0 380 230" fill="none" xmlns="http://www.w3.org/2000/svg">
<g clip-path="url(#clip0_0_324)">
<rect width="380" height="230" rx="16" fill="#2969FF"/>
<g filter="url(#filter0_d_0_324)">
<path d="M95.386 33.8541L108.403 -0.227051H188L165.85 56.0903C163.254 62.6898 157.873 67.8036 151.149 70.0593L0 120.773V82.5156L82.3842 47.3654C88.371 44.8111 93.0635 39.9346 95.386 33.8541Z" fill="url(#paint0_linear_0_324)"/>
</g>
<g filter="url(#filter1_d_0_324)">
<path d="M332.179 24.3616L343.583 -1.22705H380V230.773H0V214.823L111.388 175.742C118.064 173.4 123.366 168.231 125.878 161.617L130.777 148.721C133.199 142.343 138.222 137.297 144.589 134.845L193.986 115.825C200.503 113.316 205.603 108.092 207.957 101.518L216.042 78.9361C218.586 71.8294 224.326 66.3338 231.536 64.1004L317.358 37.5167C323.963 35.471 329.364 30.6766 332.179 24.3616Z" fill="url(#paint1_linear_0_324)"/>
</g>
<g filter="url(#filter2_d_0_324)">
<path d="M276.534 125.434L380 99.7729V230.773H224L259.998 139.89C262.852 132.684 269.011 127.3 276.534 125.434Z" fill="url(#paint2_linear_0_324)"/>
</g>
<g filter="url(#filter3_d_0_324)">
<path d="M205.642 199.454L380 172.773V230.773H175L189.462 209.628C193.214 204.143 199.072 200.459 205.642 199.454Z" fill="url(#paint3_linear_0_324)"/>
</g>
<path d="M29.9619 58.7294L24 61.9999V50.8106C24 50.0805 24.3979 49.4083 25.0381 49.0572L31 45.7866V56.9759C31 57.7061 30.6021 58.3782 29.9619 58.7294Z" fill="url(#paint4_linear_0_324)"/>
<path d="M24 30V36.9371C24 37.6596 24.3896 38.3259 25.0193 38.6801L31 42.0451L38 38.1067L24 30Z" fill="url(#paint5_linear_0_324)"/>
<path d="M26.625 52.1867V45.6762C26.625 44.9538 27.0146 44.2874 27.6443 43.9332L31 42.0451L38 38.1067V44.6171C38 45.3396 37.6104 46.0059 36.9807 46.3602L26.625 52.1867Z" fill="url(#paint6_linear_0_324)"/>
<path d="M47.5988 41.1315V38.4344H60.4855V41.1315H55.5255V55.1429H52.5588V41.1315H47.5988Z" fill="white"/>
<path d="M68.1404 43.8058V46.3886H67.0974C65.0578 46.3886 63.783 47.4629 63.783 49.6572V55.1429H60.9554V43.8743H63.6208L63.783 45.5201C64.2698 44.4001 65.3591 43.6458 66.8888 43.6458C67.2829 43.6458 67.6769 43.6915 68.1404 43.8058Z" fill="white"/>
<path d="M71.4682 41.5886C70.4948 41.5886 69.7299 40.8343 69.7299 39.8972C69.7299 38.9601 70.4948 38.2286 71.4682 38.2286C72.3953 38.2286 73.1602 38.9601 73.1602 39.8972C73.1602 40.8343 72.3953 41.5886 71.4682 41.5886ZM70.0544 55.1429V43.8515H72.882V55.1429H70.0544Z" fill="white"/>
<path d="M75.8035 60.3772V43.8515H78.4226L78.608 45.5658C79.3033 44.2629 80.8099 43.5086 82.5482 43.5086C85.7699 43.5086 87.9022 45.8172 87.9022 49.3601C87.9022 52.8801 85.9553 55.4401 82.5482 55.4401C80.833 55.4401 79.3497 54.7772 78.6312 53.6344V60.3772H75.8035ZM78.6543 49.4972C78.6543 51.5315 79.9291 52.9258 81.876 52.9258C83.8693 52.9258 85.0514 51.5086 85.0514 49.4972C85.0514 47.4858 83.8693 46.0458 81.876 46.0458C79.9291 46.0458 78.6543 47.4629 78.6543 49.4972Z" fill="white"/>
<path d="M93.0045 55.1429H90.2V38.1372H93.0045V55.1429Z" fill="white"/>
<path d="M101.093 55.4401C97.6858 55.4401 95.2986 52.9944 95.2986 49.4972C95.2986 45.9544 97.6395 43.5086 101 43.5086C104.431 43.5086 106.609 45.7715 106.609 49.2915V50.1372L97.9872 50.1601C98.1958 52.1486 99.2619 53.1544 101.139 53.1544C102.692 53.1544 103.712 52.5601 104.036 51.4858H106.656C106.169 53.9544 104.083 55.4401 101.093 55.4401ZM101.023 45.7944C99.3546 45.7944 98.3348 46.6858 98.0567 48.3772H103.805C103.805 46.8229 102.715 45.7944 101.023 45.7944Z" fill="white"/>
<path d="M116.15 49.5201H112.952V55.1429H109.197V38.2286H116.15C119.65 38.2286 121.991 40.4915 121.991 43.8743C121.991 47.2572 119.65 49.5201 116.15 49.5201ZM115.316 41.5201H112.952V46.2286H115.316C117.123 46.2286 118.027 45.4515 118.027 43.8743C118.027 42.2972 117.123 41.5201 115.316 41.5201Z" fill="white"/>
<path d="M126.969 55.4401C124.512 55.4401 122.982 54.0229 122.982 51.7829C122.982 49.6801 124.489 48.3772 127.27 48.1715L130.515 47.9201V47.7372C130.515 46.6172 129.819 46.0229 128.545 46.0229C127.038 46.0229 126.227 46.5944 126.227 47.6229H123.26C123.26 45.0401 125.416 43.3486 128.73 43.3486C132.091 43.3486 133.991 45.2001 133.991 48.4686V55.1429H130.839L130.607 53.6344C130.237 54.6858 128.707 55.4401 126.969 55.4401ZM128.22 52.8344C129.588 52.8344 130.538 52.1715 130.538 50.8686V50.2515L128.73 50.4115C127.177 50.5486 126.621 50.8915 126.621 51.6229C126.621 52.4458 127.131 52.8344 128.22 52.8344Z" fill="white"/>
<path d="M135.285 60.6286V57.6801H137.255C138.46 57.6801 138.97 57.3144 139.434 56.0801L139.642 55.5315L134.983 43.7144H138.808L141.334 51.0515L144.139 43.7144H147.847L141.96 57.6344C140.986 59.9658 139.688 60.9486 137.649 60.9486C136.791 60.9486 135.98 60.8344 135.285 60.6286Z" fill="white"/>
<g clip-path="url(#clip1_0_324)">
<path d="M328.707 39.1442L322.947 52.8878H319.188L316.355 41.9207C316.181 41.2444 316.032 40.9983 315.509 40.7111C314.653 40.2481 313.244 39.8137 312 39.5432L312.087 39.1443H318.135C318.907 39.1443 319.6 39.6588 319.775 40.5457L321.272 48.5003L324.971 39.1443L328.707 39.1442ZM343.432 48.3986C343.448 44.7733 338.415 44.576 338.451 42.9541C338.461 42.459 338.93 41.9351 339.958 41.8028C340.468 41.735 341.873 41.6852 343.464 42.4159L344.088 39.5028C343.232 39.192 342.131 38.8943 340.763 38.8943C337.249 38.8943 334.775 40.7633 334.754 43.4376C334.731 45.4152 336.519 46.5188 337.868 47.1775C339.253 47.8514 339.716 48.2817 339.711 48.8861C339.702 49.8085 338.606 50.2117 337.584 50.2298C335.796 50.2576 334.759 49.7466 333.931 49.361L333.287 52.3742C334.116 52.7551 335.652 53.0858 337.242 53.1053C340.977 53.1051 343.42 51.256 343.432 48.3986ZM352.711 52.8879H356L353.13 39.1443H350.094C349.412 39.1443 348.836 39.5422 348.58 40.1517L343.248 52.8879H346.98L347.721 50.8354H352.283L352.711 52.8879ZM348.744 48.0184L350.616 42.8579L351.693 48.0184H348.744ZM333.787 39.1442L330.846 52.8878H327.29L330.232 39.1442H333.787Z" fill="white"/>
</g>
<path d="M29.232 126.288C27.168 126.288 25.416 124.584 25.416 122.544C25.416 120.48 27.168 118.752 29.232 118.752C31.296 118.752 33 120.504 33 122.544C33 124.584 31.248 126.288 29.232 126.288ZM39.6383 126.288C37.5742 126.288 35.8223 124.584 35.8223 122.544C35.8223 120.48 37.5742 118.752 39.6383 118.752C41.7023 118.752 43.4063 120.504 43.4063 122.544C43.4063 124.584 41.6543 126.288 39.6383 126.288ZM50.0445 126.288C47.9805 126.288 46.2285 124.584 46.2285 122.544C46.2285 120.48 47.9805 118.752 50.0445 118.752C52.1085 118.752 53.8125 120.504 53.8125 122.544C53.8125 124.584 52.0605 126.288 50.0445 126.288ZM60.4508 126.288C58.3867 126.288 56.6348 124.584 56.6348 122.544C56.6348 120.48 58.3867 118.752 60.4508 118.752C62.5148 118.752 64.2188 120.504 64.2188 122.544C64.2188 124.584 62.4668 126.288 60.4508 126.288ZM77.3258 126.288C75.2617 126.288 73.5098 124.584 73.5098 122.544C73.5098 120.48 75.2617 118.752 77.3258 118.752C79.3898 118.752 81.0938 120.504 81.0938 122.544C81.0938 124.584 79.3418 126.288 77.3258 126.288ZM87.732 126.288C85.668 126.288 83.916 124.584 83.916 122.544C83.916 120.48 85.668 118.752 87.732 118.752C89.796 118.752 91.5 120.504 91.5 122.544C91.5 124.584 89.748 126.288 87.732 126.288ZM98.1383 126.288C96.0742 126.288 94.3223 124.584 94.3223 122.544C94.3223 120.48 96.0742 118.752 98.1383 118.752C100.202 118.752 101.906 120.504 101.906 122.544C101.906 124.584 100.154 126.288 98.1383 126.288ZM108.545 126.288C106.48 126.288 104.729 124.584 104.729 122.544C104.729 120.48 106.48 118.752 108.545 118.752C110.609 118.752 112.313 120.504 112.313 122.544C112.313 124.584 110.561 126.288 108.545 126.288ZM125.42 126.288C123.355 126.288 121.604 124.584 121.604 122.544C121.604 120.48 123.355 118.752 125.42 118.752C127.484 118.752 129.188 120.504 129.188 122.544C129.188 124.584 127.436 126.288 125.42 126.288ZM135.826 126.288C133.762 126.288 132.01 124.584 132.01 122.544C132.01 120.48 133.762 118.752 135.826 118.752C137.89 118.752 139.594 120.504 139.594 122.544C139.594 124.584 137.842 126.288 135.826 126.288ZM146.232 126.288C144.168 126.288 142.416 124.584 142.416 122.544C142.416 120.48 144.168 118.752 146.232 118.752C148.296 118.752 150 120.504 150 122.544C150 124.584 148.248 126.288 146.232 126.288ZM156.638 126.288C154.574 126.288 152.822 124.584 152.822 122.544C152.822 120.48 154.574 118.752 156.638 118.752C158.702 118.752 160.406 120.504 160.406 122.544C160.406 124.584 158.654 126.288 156.638 126.288ZM172.937 114.216H169.097V111.456H175.889V129H172.937V114.216ZM191.116 128.976L178.948 129V126.696L184.684 121.848C187.06 119.832 187.852 118.68 187.852 117C187.852 115.008 186.772 113.88 184.924 113.88C183.004 113.88 181.804 115.224 181.78 117.48H178.732C178.756 113.64 181.204 111.144 184.924 111.144C188.668 111.144 190.996 113.28 190.996 116.832C190.996 119.28 189.652 121.128 186.988 123.408L183.82 126.12H191.116V128.976ZM195.505 116.616L199.297 111.456H202.801L198.601 117.048C199.033 116.928 199.489 116.856 199.921 116.856C203.545 116.856 205.993 119.4 205.993 122.952C205.993 126.696 203.209 129.312 199.465 129.312C195.673 129.312 192.841 126.528 192.841 122.928C192.841 120.816 193.537 119.28 195.505 116.616ZM195.985 122.952C195.985 125.088 197.401 126.576 199.465 126.576C201.457 126.576 202.897 125.088 202.897 122.952C202.897 120.84 201.481 119.376 199.465 119.376C197.377 119.376 195.985 120.84 195.985 122.952ZM221.475 125.664H219.339V129H216.435V125.664H207.531V122.976L215.475 111.456H219.339V122.976H221.475V125.664ZM210.795 122.976H216.435V114.768L210.795 122.976Z" fill="white"/>
<g clip-path="url(#clip2_0_324)">
<path d="M350.924 138.094H311.951C309.836 138.094 308.122 136.423 308.122 134.362V105.638C308.122 103.577 309.836 101.906 311.951 101.906H350.924C353.038 101.906 354.753 103.577 354.753 105.638V134.362C354.753 136.423 353.038 138.094 350.924 138.094Z" fill="url(#paint7_linear_0_324)"/>
<path fill-rule="evenodd" clip-rule="evenodd" d="M350.962 100.688C353.74 100.688 356 102.892 356 105.601V134.399C356 137.108 353.74 139.312 350.962 139.312H311.912C309.135 139.312 306.874 137.108 306.874 134.399V105.601C306.874 102.892 309.134 100.688 311.912 100.688H350.962ZM353.596 121.172H342.032V126.361C342.032 127.744 343.186 128.87 344.604 128.87H353.596V121.172ZM353.596 118.828H342.031V113.639C342.031 112.256 343.185 111.13 344.604 111.13H353.596V118.828ZM353.596 108.786H344.604C341.865 108.786 339.636 110.956 339.628 113.626C338.863 113.176 337.986 112.939 337.092 112.94H332.639V103.032H350.962C352.414 103.032 353.596 104.185 353.596 105.601V108.786ZM309.278 108.786V105.601C309.278 104.185 310.46 103.032 311.912 103.032H330.235V112.94H325.782C324.889 112.939 324.012 113.176 323.246 113.626C323.238 110.956 321.01 108.786 318.27 108.786H309.278ZM309.278 111.13V118.828H320.843V113.639C320.843 112.256 319.689 111.13 318.27 111.13H309.278ZM309.278 121.172V128.87H318.27C319.689 128.87 320.843 127.744 320.843 126.361V121.172H309.278ZM309.278 131.214V134.399C309.278 135.815 310.46 136.968 311.912 136.968H330.235V127.06H325.782C324.889 127.061 324.012 126.824 323.246 126.374C323.238 129.044 321.01 131.214 318.27 131.214H309.278ZM332.639 136.968H350.962C352.415 136.968 353.596 135.815 353.596 134.399V131.214H344.604C341.865 131.214 339.636 129.044 339.628 126.374C338.863 126.824 337.986 127.061 337.092 127.06H332.639V136.968ZM337.092 124.715C338.49 124.715 339.628 123.606 339.628 122.242V117.758C339.628 116.394 338.49 115.285 337.092 115.285H325.782C324.384 115.285 323.246 116.394 323.246 117.758V122.242C323.246 123.606 324.384 124.715 325.782 124.715H337.092Z" fill="url(#paint8_linear_0_324)"/>
</g>
<path d="M29.168 200H25.344V188.432H29.104C32.56 188.432 34.896 190.768 34.896 194.224C34.896 197.664 32.592 200 29.168 200ZM28.992 189.872H26.912V198.544H29.056C31.632 198.544 33.264 196.88 33.264 194.224C33.264 191.536 31.632 189.872 28.992 189.872ZM38.4589 188.432V200H36.8909V188.432H38.4589ZM41.6365 200H40.0045L44.2285 188.432H45.9725L50.2125 200H48.5645L47.5245 197.12H42.6605L41.6365 200ZM44.9005 190.928L43.1405 195.76H47.0605L45.2845 190.928C45.2045 190.704 45.1245 190.432 45.0925 190.256C45.0605 190.416 44.9805 190.688 44.9005 190.928ZM53.3183 200H51.7503V188.432H53.3183L59.2383 197.376V188.432H60.8063V200H59.2383L53.3183 191.056V200ZM65.0683 200H63.5003V188.432H65.0683L70.9883 197.376V188.432H72.5563V200H70.9883L65.0683 191.056V200ZM82.3063 200H75.2503V188.432H82.3063V189.872H76.8183V193.488H81.7623V194.88H76.8183V198.544H82.3063V200ZM90.5214 200H88.9534V188.432H93.3214C95.8014 188.432 97.2734 189.744 97.2734 191.904C97.2734 193.504 96.4734 194.656 95.0334 195.12L97.3854 200H95.6414L93.4814 195.424H90.5214V200ZM90.5214 189.84V194.032H93.3374C94.7934 194.032 95.6254 193.248 95.6254 191.92C95.6254 190.576 94.7614 189.84 93.3214 189.84H90.5214ZM99.2953 195.888V188.432H100.863V195.792C100.863 197.648 101.887 198.672 103.727 198.672C105.551 198.672 106.559 197.632 106.559 195.792V188.432H108.143V195.888C108.143 198.544 106.447 200.192 103.727 200.192C100.991 200.192 99.2953 198.56 99.2953 195.888ZM110.078 191.552C110.078 189.568 111.678 188.224 114.062 188.224C116.27 188.224 117.694 189.456 117.822 191.456H116.238C116.158 190.304 115.342 189.632 114.046 189.632C112.59 189.632 111.646 190.368 111.646 191.504C111.646 192.432 112.174 192.992 113.262 193.248L115.166 193.696C117.054 194.128 118.014 195.152 118.014 196.784C118.014 198.864 116.398 200.192 113.934 200.192C111.582 200.192 110.014 198.96 109.918 196.976H111.518C111.55 198.08 112.478 198.784 113.934 198.784C115.47 198.784 116.446 198.064 116.446 196.912C116.446 196 115.95 195.424 114.846 195.168L112.942 194.736C111.054 194.304 110.078 193.216 110.078 191.552ZM119.375 191.552C119.375 189.568 120.975 188.224 123.359 188.224C125.567 188.224 126.991 189.456 127.119 191.456H125.535C125.455 190.304 124.639 189.632 123.343 189.632C121.887 189.632 120.943 190.368 120.943 191.504C120.943 192.432 121.471 192.992 122.559 193.248L124.463 193.696C126.351 194.128 127.311 195.152 127.311 196.784C127.311 198.864 125.695 200.192 123.231 200.192C120.879 200.192 119.311 198.96 119.215 196.976H120.815C120.847 198.08 121.775 198.784 123.231 198.784C124.767 198.784 125.743 198.064 125.743 196.912C125.743 196 125.247 195.424 124.143 195.168L122.239 194.736C120.351 194.304 119.375 193.216 119.375 191.552ZM136.338 200H129.282V188.432H136.338V189.872H130.85V193.488H135.794V194.88H130.85V198.544H136.338V200ZM140.178 188.432V198.544H145.266V200H138.61V188.432H140.178ZM148.537 188.432V198.544H153.625V200H146.969V188.432H148.537Z" fill="white"/>
<path d="M312.85 182L310.1 174.77H311.15L312.91 179.39C313.07 179.8 313.21 180.21 313.36 180.75C313.53 180.18 313.7 179.7 313.82 179.38L315.57 174.77H316.59L313.87 182H312.85ZM318.008 182.12C316.958 182.12 316.338 181.53 316.338 180.64C316.338 179.74 317.008 179.18 318.158 179.09L319.698 178.97V178.83C319.698 178.01 319.208 177.72 318.548 177.72C317.758 177.72 317.308 178.07 317.308 178.66H316.488C316.488 177.64 317.328 176.97 318.588 176.97C319.798 176.97 320.618 177.61 320.618 178.93V182H319.818L319.718 181.21C319.468 181.77 318.798 182.12 318.008 182.12ZM318.278 181.39C319.168 181.39 319.708 180.81 319.708 179.89V179.63L318.458 179.73C317.628 179.81 317.288 180.13 317.288 180.61C317.288 181.13 317.668 181.39 318.278 181.39ZM322.88 182H321.94V174.64H322.88V182ZM324.724 175.95C324.384 175.95 324.104 175.67 324.104 175.33C324.104 174.98 324.384 174.71 324.724 174.71C325.064 174.71 325.344 174.98 325.344 175.33C325.344 175.67 325.064 175.95 324.724 175.95ZM324.264 182V177.11H325.204V182H324.264ZM328.529 182.12C327.109 182.12 326.249 181.06 326.249 179.57C326.249 178.07 327.119 176.97 328.569 176.97C329.319 176.97 329.949 177.3 330.279 177.9V174.64H331.209V182H330.369L330.289 181.11C329.969 181.78 329.309 182.12 328.529 182.12ZM328.719 181.27C329.679 181.27 330.269 180.56 330.269 179.54C330.269 178.54 329.679 177.82 328.719 177.82C327.759 177.82 327.199 178.54 327.199 179.54C327.199 180.55 327.759 181.27 328.719 181.27ZM334.759 175.67V174.77H340.089V175.67H337.919V182H336.939V175.67H334.759ZM341.854 181.99H340.914V174.64H341.854V177.86C342.164 177.33 342.754 176.97 343.514 176.97C344.764 176.97 345.364 177.76 345.364 179.01V182H344.424V179.22C344.424 178.23 343.954 177.83 343.254 177.83C342.344 177.83 341.854 178.49 341.854 179.33V181.99ZM349.466 177.07V177.93H349.046C348.156 177.93 347.606 178.47 347.606 179.41V182H346.666V177.12H347.546L347.606 177.86C347.806 177.35 348.296 177.01 348.966 177.01C349.136 177.01 349.276 177.03 349.466 177.07ZM353.728 177.11H354.658V182H353.818L353.718 181.26C353.438 181.77 352.788 182.12 352.068 182.12C350.928 182.12 350.288 181.35 350.288 180.15V177.11H351.228V179.84C351.228 180.89 351.678 181.29 352.398 181.29C353.258 181.29 353.728 180.74 353.728 179.69V177.11Z" fill="white"/>
<path d="M298.686 195.946C298.686 192.81 300.31 190.682 302.858 190.682C305.392 190.682 307.016 192.81 307.016 195.946C307.016 199.096 305.462 201.182 302.858 201.182C300.24 201.182 298.686 199.096 298.686 195.946ZM300.044 195.946C300.044 198.438 301.08 199.95 302.858 199.95C304.636 199.95 305.658 198.438 305.658 195.946C305.658 193.426 304.636 191.914 302.858 191.914C301.08 191.914 300.044 193.426 300.044 195.946ZM311.795 201.168C309.723 201.168 308.379 199.852 308.379 197.836H309.737C309.737 199.138 310.535 199.936 311.823 199.936C313.195 199.936 314.077 199.026 314.077 197.654C314.077 196.352 313.251 195.386 311.837 195.386C310.983 195.386 310.199 195.792 309.737 196.366L308.575 196.072L309.807 190.878H314.875V192.138H310.801L310.129 194.826C310.661 194.42 311.333 194.21 312.089 194.21C314.147 194.21 315.477 195.652 315.477 197.598C315.477 199.698 313.979 201.168 311.795 201.168ZM317.281 201H315.979L319.927 190.892H321.243L317.281 201ZM328.513 200.986L321.681 201V199.95L324.943 197.136C326.581 195.722 327.043 195.036 327.043 193.958C327.043 192.684 326.315 191.928 325.097 191.928C323.851 191.928 323.039 192.838 323.011 194.28H321.639C321.681 192.11 323.053 190.696 325.111 190.696C327.141 190.696 328.443 191.928 328.443 193.874C328.443 195.316 327.729 196.338 325.937 197.892L323.837 199.712H328.513V200.986ZM329.776 195.946C329.776 192.81 331.4 190.682 333.948 190.682C336.482 190.682 338.106 192.81 338.106 195.946C338.106 199.096 336.552 201.182 333.948 201.182C331.33 201.182 329.776 199.096 329.776 195.946ZM331.134 195.946C331.134 198.438 332.17 199.95 333.948 199.95C335.726 199.95 336.748 198.438 336.748 195.946C336.748 193.426 335.726 191.914 333.948 191.914C332.17 191.914 331.134 193.426 331.134 195.946ZM346.273 200.986L339.441 201V199.95L342.703 197.136C344.341 195.722 344.803 195.036 344.803 193.958C344.803 192.684 344.075 191.928 342.857 191.928C341.611 191.928 340.799 192.838 340.771 194.28H339.399C339.441 192.11 340.813 190.696 342.871 190.696C344.901 190.696 346.203 191.928 346.203 193.874C346.203 195.316 345.489 196.338 343.697 197.892L341.597 199.712H346.273V200.986ZM348.824 194.084L351.19 190.878H352.786L350.252 194.238C350.602 194.098 350.966 194.028 351.316 194.028C353.416 194.028 354.83 195.54 354.83 197.542C354.83 199.656 353.234 201.168 351.148 201.168C349.048 201.168 347.424 199.586 347.424 197.542C347.424 196.338 347.788 195.498 348.824 194.084ZM348.824 197.556C348.824 198.942 349.776 199.936 351.148 199.936C352.492 199.936 353.444 198.942 353.444 197.556C353.444 196.17 352.492 195.19 351.148 195.19C349.776 195.19 348.824 196.17 348.824 197.556Z" fill="white"/>
</g>
<defs>
<filter id="filter0_d_0_324" x="-32" y="-32.2271" width="252" height="185" filterUnits="userSpaceOnUse" color-interpolation-filters="sRGB">
<feFlood flood-opacity="0" result="BackgroundImageFix"/>
<feColorMatrix in="SourceAlpha" type="matrix" values="0 0 0 0 0 0 0 0 0 0 0 0 0 0 0 0 0 0 127 0" result="hardAlpha"/>
<feOffset/>
<feGaussianBlur stdDeviation="16"/>
<feComposite in2="hardAlpha" operator="out"/>
<feColorMatrix type="matrix" values="0 0 0 0 0.0117647 0 0 0 0 0.027451 0 0 0 0 0.0705882 0 0 0 0.04 0"/>
<feBlend mode="normal" in2="BackgroundImageFix" result="effect1_dropShadow_0_324"/>
<feBlend mode="normal" in="SourceGraphic" in2="effect1_dropShadow_0_324" result="shape"/>
</filter>
<filter id="filter1_d_0_324" x="-32" y="-33.2271" width="444" height="296" filterUnits="userSpaceOnUse" color-interpolation-filters="sRGB">
<feFlood flood-opacity="0" result="BackgroundImageFix"/>
<feColorMatrix in="SourceAlpha" type="matrix" values="0 0 0 0 0 0 0 0 0 0 0 0 0 0 0 0 0 0 127 0" result="hardAlpha"/>
<feOffset/>
<feGaussianBlur stdDeviation="16"/>
<feComposite in2="hardAlpha" operator="out"/>
<feColorMatrix type="matrix" values="0 0 0 0 0.0117647 0 0 0 0 0.027451 0 0 0 0 0.0705882 0 0 0 0.04 0"/>
<feBlend mode="normal" in2="BackgroundImageFix" result="effect1_dropShadow_0_324"/>
<feBlend mode="normal" in="SourceGraphic" in2="effect1_dropShadow_0_324" result="shape"/>
</filter>
<filter id="filter2_d_0_324" x="192" y="67.7729" width="220" height="195" filterUnits="userSpaceOnUse" color-interpolation-filters="sRGB">
<feFlood flood-opacity="0" result="BackgroundImageFix"/>
<feColorMatrix in="SourceAlpha" type="matrix" values="0 0 0 0 0 0 0 0 0 0 0 0 0 0 0 0 0 0 127 0" result="hardAlpha"/>
<feOffset/>
<feGaussianBlur stdDeviation="16"/>
<feComposite in2="hardAlpha" operator="out"/>
<feColorMatrix type="matrix" values="0 0 0 0 0.0117647 0 0 0 0 0.027451 0 0 0 0 0.0705882 0 0 0 0.04 0"/>
<feBlend mode="normal" in2="BackgroundImageFix" result="effect1_dropShadow_0_324"/>
<feBlend mode="normal" in="SourceGraphic" in2="effect1_dropShadow_0_324" result="shape"/>
</filter>
<filter id="filter3_d_0_324" x="143" y="140.773" width="269" height="122" filterUnits="userSpaceOnUse" color-interpolation-filters="sRGB">
<feFlood flood-opacity="0" result="BackgroundImageFix"/>
<feColorMatrix in="SourceAlpha" type="matrix" values="0 0 0 0 0 0 0 0 0 0 0 0 0 0 0 0 0 0 127 0" result="hardAlpha"/>
<feOffset/>
<feGaussianBlur stdDeviation="16"/>
<feComposite in2="hardAlpha" operator="out"/>
<feColorMatrix type="matrix" values="0 0 0 0 0.0117647 0 0 0 0 0.027451 0 0 0 0 0.0705882 0 0 0 0.04 0"/>
<feBlend mode="normal" in2="BackgroundImageFix" result="effect1_dropShadow_0_324"/>
<feBlend mode="normal" in="SourceGraphic" in2="effect1_dropShadow_0_324" result="shape"/>
</filter>
<linearGradient id="paint0_linear_0_324" x1="45.029" y1="-0.227053" x2="97.2411" y2="120.912" gradientUnits="userSpaceOnUse">
<stop stop-color="#3D77FF"/>
<stop offset="1" stop-color="#2969FF"/>
</linearGradient>
<linearGradient id="paint1_linear_0_324" x1="190" y1="-1.22705" x2="190" y2="230.773" gradientUnits="userSpaceOnUse">
<stop stop-color="#3D77FF"/>
<stop offset="1" stop-color="#2969FF"/>
</linearGradient>
<linearGradient id="paint2_linear_0_324" x1="302" y1="99.7729" x2="302" y2="230.773" gradientUnits="userSpaceOnUse">
<stop stop-color="#3D77FF"/>
<stop offset="1" stop-color="#2969FF"/>
</linearGradient>
<linearGradient id="paint3_linear_0_324" x1="276.718" y1="172.773" x2="276.718" y2="230.773" gradientUnits="userSpaceOnUse">
<stop stop-color="#3D77FF"/>
<stop offset="1" stop-color="#2969FF"/>
</linearGradient>
<linearGradient id="paint4_linear_0_324" x1="27.5" y1="45.7866" x2="27.5" y2="61.9999" gradientUnits="userSpaceOnUse">
<stop stop-color="white"/>
<stop offset="1" stop-color="#D2DFFF"/>
</linearGradient>
<linearGradient id="paint5_linear_0_324" x1="31" y1="29.773" x2="31" y2="41.773" gradientUnits="userSpaceOnUse">
<stop stop-color="white"/>
<stop offset="1" stop-color="#D2DFFF"/>
</linearGradient>
<linearGradient id="paint6_linear_0_324" x1="26.625" y1="47.0667" x2="37.9865" y2="45.2744" gradientUnits="userSpaceOnUse">
<stop stop-color="#D2DFFF"/>
<stop offset="1" stop-color="#98B7FE"/>
</linearGradient>
<linearGradient id="paint7_linear_0_324" x1="331.437" y1="101.906" x2="331.437" y2="138.094" gradientUnits="userSpaceOnUse">
<stop stop-color="#F5ECB9"/>
<stop offset="1" stop-color="#CE9C2A"/>
</linearGradient>
<linearGradient id="paint8_linear_0_324" x1="331.437" y1="100.688" x2="331.437" y2="139.312" gradientUnits="userSpaceOnUse">
<stop stop-color="#977029"/>
<stop offset="1" stop-color="#977029"/>
</linearGradient>
<clipPath id="clip0_0_324">
<rect width="380" height="230" rx="16" fill="white"/>
</clipPath>
<clipPath id="clip1_0_324">
<rect width="44" height="44" fill="white" transform="translate(312 24)"/>
</clipPath>
<clipPath id="clip2_0_324">
<rect width="49.1256" height="48" fill="white" transform="translate(306.874 96)"/>
</clipPath>
</defs>
</svg>
