<svg width="32" height="32" viewBox="0 0 32 32" fill="none" xmlns="http://www.w3.org/2000/svg">
<g id="Frame">
<g id="Group">
<g id="15-Checked">
<path id="Vector" opacity="0.1" d="M12.832 28.6166C18.8313 28.6166 23.6948 23.7532 23.6948 17.7539C23.6948 11.7545 18.8313 6.89111 12.832 6.89111C6.83267 6.89111 1.96924 11.7545 1.96924 17.7539C1.96924 23.7532 6.83267 28.6166 12.832 28.6166Z" fill="#2969FF"/>
<path id="Vector_2" d="M12.9548 26.1498L12.8171 25.9151C10.7124 22.3292 5.1197 14.7195 5.06321 14.6431L4.98253 14.5335L6.88794 12.6504L12.9195 16.862C16.7171 11.9341 20.2599 8.54933 22.571 6.57278C25.099 4.41062 26.7446 3.41524 26.7612 3.4057L26.7987 3.3833H30.0308L29.722 3.65825C21.7818 10.7306 13.1754 25.7623 13.0897 25.9133L12.9548 26.1498Z" fill="#2969FF"/>
</g>
</g>
</g>
</svg>
