<svg width="124" height="32" viewBox="0 0 124 32" fill="none" xmlns="http://www.w3.org/2000/svg">
<g id="Logo">
<g id="Group 2">
<path id="Vector 3" d="M5.96191 28.7295L0 32V20.8107C0 20.0805 0.397915 19.4084 1.03809 19.0572L7 15.7867V26.976C7 27.7061 6.60208 28.3783 5.96191 28.7295Z" fill="#2969FF"/>
<path id="Vector 4" d="M0 0V6.9371C0 7.65957 0.389644 8.32588 1.0193 8.68015L7 12.0451L14 8.10665L0 0Z" fill="#2969FF"/>
<path id="Vector 5" d="M2.62501 22.1866V15.6762C2.62501 14.9537 3.01465 14.2874 3.64431 13.9331L7.00001 12.0451L14 8.10663V14.6171C14 15.3395 13.6104 16.0058 12.9807 16.3601L2.62501 22.1866Z" fill="url(#paint0_linear_0_133)"/>
</g>
<g id="TriplePay">
<path d="M23.5988 11.1314V8.43429H36.4855V11.1314H31.5255V25.1429H28.5588V11.1314H23.5988Z" fill="#030712"/>
<path d="M44.1404 13.8057V16.3886H43.0974C41.0578 16.3886 39.783 17.4629 39.783 19.6571V25.1429H36.9554V13.8743H39.6208L39.783 15.52C40.2698 14.4 41.3591 13.6457 42.8888 13.6457C43.2828 13.6457 43.6769 13.6914 44.1404 13.8057Z" fill="#030712"/>
<path d="M47.4682 11.5886C46.4947 11.5886 45.7299 10.8343 45.7299 9.89715C45.7299 8.96 46.4947 8.22857 47.4682 8.22857C48.3953 8.22857 49.1602 8.96 49.1602 9.89715C49.1602 10.8343 48.3953 11.5886 47.4682 11.5886ZM46.0544 25.1429V13.8514H48.882V25.1429H46.0544Z" fill="#030712"/>
<path d="M51.8035 30.3771V13.8514H54.4226L54.608 15.5657C55.3033 14.2629 56.8099 13.5086 58.5482 13.5086C61.7699 13.5086 63.9022 15.8171 63.9022 19.36C63.9022 22.88 61.9553 25.44 58.5482 25.44C56.833 25.44 55.3497 24.7771 54.6312 23.6343V30.3771H51.8035ZM54.6543 19.4971C54.6543 21.5314 55.9291 22.9257 57.876 22.9257C59.8693 22.9257 61.0513 21.5086 61.0513 19.4971C61.0513 17.4857 59.8693 16.0457 57.876 16.0457C55.9291 16.0457 54.6543 17.4629 54.6543 19.4971Z" fill="#030712"/>
<path d="M69.0045 25.1429H66.2V8.13715H69.0045V25.1429Z" fill="#030712"/>
<path d="M77.0929 25.44C73.6858 25.44 71.2985 22.9943 71.2985 19.4971C71.2985 15.9543 73.6395 13.5086 77.0002 13.5086C80.4305 13.5086 82.6092 15.7714 82.6092 19.2914V20.1371L73.9871 20.16C74.1957 22.1486 75.2619 23.1543 77.1393 23.1543C78.6922 23.1543 79.712 22.56 80.0365 21.4857H82.6556C82.1688 23.9543 80.0828 25.44 77.0929 25.44ZM77.0234 15.7943C75.3546 15.7943 74.3348 16.6857 74.0567 18.3771H79.8047C79.8047 16.8229 78.7154 15.7943 77.0234 15.7943Z" fill="#030712"/>
<path d="M92.15 19.52H88.9515V25.1429H85.1968V8.22857H92.15C95.6498 8.22857 97.9908 10.4914 97.9908 13.8743C97.9908 17.2571 95.6498 19.52 92.15 19.52ZM91.3156 11.52H88.9515V16.2286H91.3156C93.1235 16.2286 94.0274 15.4514 94.0274 13.8743C94.0274 12.2971 93.1235 11.52 91.3156 11.52Z" fill="#030712"/>
<path d="M102.969 25.44C100.512 25.44 98.982 24.0229 98.982 21.7829C98.982 19.68 100.489 18.3771 103.27 18.1714L106.515 17.92V17.7371C106.515 16.6171 105.819 16.0229 104.545 16.0229C103.038 16.0229 102.227 16.5943 102.227 17.6229H99.2601C99.2601 15.04 101.416 13.3486 104.73 13.3486C108.091 13.3486 109.991 15.2 109.991 18.4686V25.1429H106.839L106.607 23.6343C106.237 24.6857 104.707 25.44 102.969 25.44ZM104.22 22.8343C105.588 22.8343 106.538 22.1714 106.538 20.8686V20.2514L104.73 20.4114C103.177 20.5486 102.621 20.8914 102.621 21.6229C102.621 22.4457 103.131 22.8343 104.22 22.8343Z" fill="#030712"/>
<path d="M111.285 30.6286V27.68H113.255C114.46 27.68 114.97 27.3143 115.434 26.08L115.642 25.5314L110.983 13.7143H114.808L117.334 21.0514L120.139 13.7143H123.847L117.96 27.6343C116.986 29.9657 115.688 30.9486 113.649 30.9486C112.791 30.9486 111.98 30.8343 111.285 30.6286Z" fill="#030712"/>
</g>
</g>
<defs>
<linearGradient id="paint0_linear_0_133" x1="2.62501" y1="17.0666" x2="13.9865" y2="15.2743" gradientUnits="userSpaceOnUse">
<stop stop-color="#5285FF"/>
<stop offset="1" stop-color="#145BFF"/>
</linearGradient>
</defs>
</svg>
